<?xml version="1.0" encoding="UTF-8" standalone="no"?>
<svg
   width="44"
   height="44"
   viewBox="0 0 44 44"
   fill="none"
   version="1.1"
   id="svg4"
   sodipodi:docname="Vector.svg"
   inkscape:version="1.1 (c68e22c387, 2021-05-23)"
   xmlns:inkscape="http://www.inkscape.org/namespaces/inkscape"
   xmlns:sodipodi="http://sodipodi.sourceforge.net/DTD/sodipodi-0.dtd"
   xmlns="http://www.w3.org/2000/svg"
   xmlns:svg="http://www.w3.org/2000/svg">
  <defs
     id="defs8" />
  <sodipodi:namedview
     id="namedview6"
     pagecolor="#ffffff"
     bordercolor="#666666"
     borderopacity="1.0"
     inkscape:pageshadow="2"
     inkscape:pageopacity="0.0"
     inkscape:pagecheckerboard="0"
     showgrid="false"
     inkscape:zoom="18.454545"
     inkscape:cx="21.972906"
     inkscape:cy="22.027094"
     inkscape:window-width="1920"
     inkscape:window-height="1001"
     inkscape:window-x="-9"
     inkscape:window-y="-9"
     inkscape:window-maximized="1"
     inkscape:current-layer="svg4" />
  <path
     fill-rule="evenodd"
     clip-rule="evenodd"
     d="M21.6394 43.8488C33.5905 43.8488 43.2786 34.2187 43.2786 22.3394C43.2786 10.46 33.5905 0.82991 21.6394 0.82991C9.68829 0.82991 0 10.46 0 22.3394C0 34.2187 9.68829 43.8488 21.6394 43.8488Z"
     fill="#B72E2E"
     id="path2" />
  <g
     style="fill:none"
     id="g19"
     transform="translate(10.432903,9.8924108)">
    <path
       d="m 14.985,23.4068 c -0.168,-0.3781 -0.315,-0.7632 -0.441,-1.1553 -0.126,-0.4061 -0.2239,-0.8122 -0.294,-1.2183 -0.7279,0.8402 -1.617,1.5194 -2.667,2.0375 -1.036,0.5181 -2.22598,0.7772 -3.56996,0.7772 -2.22599,0 -3.99698,-0.6022 -5.31298,-1.8065 -1.30199,-1.2183 -1.95299,-2.8707 -1.95299,-4.9572 0,-2.1286 0.854,-3.7739 2.56199,-4.9363 1.708,-1.1623 4.21398,-1.7434 7.51794,-1.7434 h 3.129 V 8.17794 c 0,-1.09227 -0.3149,-1.93945 -0.945,-2.54162 -0.63,-0.60217 -1.561,-0.90321 -2.7929,-0.90321 -0.70007,0 -1.32305,0.08396 -1.86906,0.25206 -0.54599,0.15399 -0.98699,0.34306 -1.32299,0.5671 l -0.399,2.4366 H 2.00707 l 0.021,-5.04121 c 1.12,-0.75626 2.40099,-1.39341 3.84298,-1.91153 1.45599,-0.518118 3.038,-0.777226 4.74605,-0.777226 2.8139,0 5.0959,0.693178 6.8459,2.079536 1.764,1.37234 2.646,3.33285 2.646,5.88153 v 9.38933 c 0,0.3501 0,0.6792 0,0.9873 0.014,0.3081 0.042,0.6021 0.084,0.8822 l 1.869,0.2521 v 3.6759 z M 9.67208,19.3107 c 0.92392,0 1.76392,-0.196 2.51992,-0.588 0.7561,-0.4062 1.344,-0.9103 1.764,-1.5125 v -3.4659 h -3.129 c -1.30192,0 -2.28893,0.3081 -2.96095,0.9243 -0.672,0.6022 -1.00801,1.3303 -1.00801,2.1845 0,0.7702 0.245,1.3724 0.73501,1.8065 0.50399,0.4341 1.19701,0.6511 2.07903,0.6511 z"
       fill="#333333"
       id="path10" />
  </g>
</svg>
